<svg id="svg" xmlns="http://www.w3.org/2000/svg" xmlns:xlink="http://www.w3.org/1999/xlink" width="400" height="230.32258064516128" viewBox="0, 0, 400,230.32258064516128"><g id="svgg"><path id="path0" d="M207.949 26.174 C 207.616 26.368,206.800 26.435,206.116 26.326 C 204.555 26.076,203.296 26.547,202.927 27.518 C 202.316 29.124,200.270 29.753,198.106 28.998 C 196.876 28.570,196.129 29.024,196.129 30.201 C 196.129 31.012,194.476 31.362,194.032 30.645 C 193.432 29.674,190.645 31.427,190.645 32.775 C 190.645 33.387,190.381 33.692,189.551 34.038 C 188.329 34.549,187.742 35.760,187.742 37.771 C 187.742 39.295,187.400 39.525,186.358 38.705 C 185.283 37.859,184.699 37.896,182.953 38.919 C 182.067 39.439,180.867 39.821,179.894 39.893 C 178.210 40.017,175.962 41.064,175.655 41.866 C 175.249 42.924,176.147 43.307,178.489 43.077 C 180.987 42.830,181.126 43.154,178.889 44.008 C 177.588 44.505,177.362 44.513,176.745 44.080 C 175.817 43.431,175.243 43.715,174.996 44.946 C 174.590 46.966,174.521 47.057,173.306 47.159 C 172.050 47.265,170.709 48.861,171.075 49.815 C 171.247 50.262,174.420 49.559,175.043 48.936 C 175.167 48.811,176.079 48.705,177.070 48.699 C 178.139 48.693,179.125 48.497,179.497 48.216 C 179.842 47.955,180.523 47.742,181.012 47.742 C 181.661 47.742,182.014 47.505,182.322 46.862 C 183.015 45.417,184.213 45.216,186.080 46.232 C 187.073 46.773,188.135 47.088,188.915 47.072 C 191.694 47.018,193.762 45.478,191.628 45.051 C 190.188 44.763,190.426 44.366,192.264 43.989 C 193.561 43.724,193.957 43.747,194.257 44.108 C 195.454 45.551,198.397 45.903,200.461 44.851 C 201.695 44.221,201.708 44.221,202.508 44.851 C 203.535 45.659,203.623 45.651,204.820 44.643 C 205.644 43.950,205.905 43.874,206.306 44.207 C 206.677 44.515,206.983 44.525,207.590 44.248 C 208.094 44.018,208.387 44.003,208.387 44.207 C 208.387 44.385,208.024 44.695,207.581 44.897 C 206.226 45.515,206.530 46.452,208.086 46.452 C 209.811 46.452,210.645 45.975,210.645 44.989 C 210.645 44.491,210.829 44.194,211.137 44.194 C 211.428 44.194,211.710 43.789,211.828 43.201 C 212.164 41.517,214.819 41.052,216.943 42.305 L 218.117 42.998 217.895 44.967 C 217.526 48.251,216.322 49.304,210.326 51.582 C 208.668 52.212,208.663 52.212,208.010 51.559 C 207.529 51.078,207.130 50.962,206.501 51.120 C 204.428 51.643,203.592 51.652,202.639 51.159 C 202.092 50.877,201.287 50.645,200.849 50.645 C 200.412 50.645,199.352 50.331,198.494 49.947 C 196.387 49.003,194.057 48.921,192.442 49.734 C 190.047 50.940,188.850 50.856,187.238 49.370 C 184.728 47.057,180.000 48.087,180.000 50.947 C 180.000 51.732,181.006 51.860,181.596 51.150 C 182.177 50.449,183.860 50.173,184.377 50.692 C 185.054 51.372,181.285 55.504,180.547 54.891 C 180.267 54.659,179.994 54.154,179.939 53.769 C 179.810 52.871,176.758 52.247,175.915 52.947 C 175.422 53.356,174.743 53.646,171.476 54.842 C 168.821 55.813,167.567 58.140,168.673 60.042 C 169.281 61.087,169.507 62.246,169.403 63.790 C 169.341 64.723,168.307 64.758,167.406 63.858 L 166.748 63.200 167.406 62.363 C 168.416 61.078,167.444 59.116,165.941 59.406 C 163.770 59.826,163.375 64.152,165.337 66.031 C 166.991 67.616,166.979 67.898,165.241 68.176 C 162.466 68.619,162.205 70.323,164.912 70.323 C 165.812 70.323,166.484 70.564,167.156 71.129 C 168.509 72.268,170.392 72.044,173.967 70.318 C 175.287 69.681,175.066 68.431,173.548 67.943 C 172.300 67.542,171.833 66.238,172.685 65.531 C 173.307 65.015,173.907 65.318,174.678 66.539 C 175.189 67.348,175.828 67.731,177.742 68.377 C 180.879 69.436,181.597 70.881,178.795 70.496 C 176.402 70.166,175.847 70.981,177.494 72.404 C 178.648 73.402,178.673 73.471,178.318 74.628 C 177.740 76.512,179.098 77.137,181.536 76.107 C 182.499 75.700,182.706 75.727,183.989 76.428 C 185.702 77.364,186.010 77.203,186.281 75.226 C 186.620 72.761,186.747 72.673,188.931 73.377 C 191.403 74.175,192.386 74.042,194.450 72.629 C 197.780 70.350,199.340 70.017,200.515 71.335 C 202.489 73.551,206.595 73.099,208.691 70.435 C 209.150 69.851,209.511 69.683,209.986 69.834 C 210.685 70.056,210.843 70.637,210.344 71.145 C 209.807 71.692,210.426 73.542,211.290 73.971 C 212.054 74.351,212.102 74.534,212.190 77.411 C 212.304 81.086,212.039 81.815,209.889 83.748 C 208.987 84.559,207.921 85.668,207.519 86.213 C 206.138 88.085,203.871 89.066,203.871 87.792 C 203.871 86.623,202.895 86.180,200.414 86.220 C 197.578 86.266,197.406 86.126,198.587 84.738 C 199.360 83.830,199.800 83.615,201.207 83.460 C 202.138 83.357,203.321 82.972,203.838 82.604 C 204.800 81.919,206.113 81.780,207.258 82.240 C 209.024 82.950,209.549 81.250,208.065 79.625 C 207.480 78.986,207.097 78.214,207.097 77.678 C 207.097 77.022,206.849 76.663,206.145 76.299 C 204.895 75.652,204.665 75.674,203.880 76.516 L 203.218 77.226 201.634 75.666 C 200.459 74.508,199.877 74.151,199.380 74.281 C 199.011 74.377,198.710 74.324,198.710 74.163 C 198.710 72.402,195.962 72.441,195.117 74.214 C 194.602 75.294,194.528 75.327,192.258 75.507 C 190.737 75.628,189.837 75.851,189.664 76.152 C 188.691 77.844,188.727 77.833,184.488 77.785 C 182.286 77.759,179.794 77.648,178.952 77.537 C 177.061 77.288,176.681 78.329,178.387 79.084 C 179.967 79.783,179.569 80.761,177.581 81.066 C 176.681 81.205,176.032 81.570,175.436 82.274 C 174.700 83.145,174.489 83.234,173.904 82.921 C 173.411 82.657,173.046 82.654,172.568 82.910 C 171.865 83.286,170.645 83.060,170.645 82.554 C 170.645 82.385,170.137 82.005,169.516 81.709 C 168.838 81.386,168.387 80.937,168.387 80.585 C 168.387 79.891,168.977 79.803,169.229 80.459 C 169.511 81.194,170.353 81.345,171.174 80.806 C 172.248 80.103,172.125 79.345,170.683 77.783 L 169.430 76.426 168.238 76.995 C 167.451 77.370,166.880 77.951,166.559 78.701 L 166.073 79.839 165.698 78.710 C 165.092 76.885,162.258 77.170,162.258 79.055 C 162.258 79.767,161.746 79.959,160.396 79.752 C 158.996 79.538,158.046 80.355,158.294 81.559 C 158.690 83.473,158.598 83.686,157.064 84.420 C 156.247 84.810,155.336 85.499,155.040 85.952 C 154.421 86.897,153.095 87.060,152.640 86.246 C 152.274 85.592,150.164 85.882,149.878 86.626 C 149.471 87.689,151.371 89.137,153.257 89.200 C 154.216 89.232,155.465 89.454,156.032 89.694 C 157.261 90.212,158.035 89.695,159.073 87.661 C 159.843 86.152,161.221 85.967,162.067 87.258 C 162.673 88.182,163.321 88.263,164.634 87.579 C 166.657 86.523,166.652 87.248,164.624 88.828 C 163.054 90.051,161.290 90.424,161.290 89.532 C 161.290 88.944,160.400 88.427,159.701 88.610 C 159.284 88.719,159.174 89.151,159.183 90.637 C 159.196 92.886,158.951 93.235,157.983 92.354 C 157.041 91.498,156.422 91.310,155.726 91.668 C 154.899 92.093,155.022 93.189,155.935 93.536 C 156.361 93.698,156.914 94.123,157.165 94.481 C 157.415 94.838,158.010 95.279,158.487 95.461 C 159.467 95.833,159.643 96.706,158.790 96.969 C 157.468 97.378,157.258 97.664,157.258 99.061 L 157.258 100.467 154.839 100.417 C 153.508 100.389,151.953 100.182,151.383 99.956 C 149.976 99.398,148.778 99.868,148.028 101.271 C 147.230 102.763,146.812 103.106,145.494 103.352 C 144.614 103.516,144.459 103.476,144.768 103.167 C 145.491 102.445,145.209 101.935,144.086 101.935 C 143.495 101.935,142.901 102.044,142.767 102.177 C 142.632 102.310,142.209 102.419,141.826 102.419 C 141.131 102.419,141.015 102.697,140.448 105.722 C 140.373 106.119,139.944 106.685,139.494 106.979 C 137.590 108.227,137.749 105.640,139.725 103.233 C 140.782 101.944,140.855 101.411,140.118 100.358 C 138.943 98.681,135.248 99.938,131.298 103.360 C 128.802 105.522,125.806 106.609,125.806 105.354 C 125.806 104.789,124.747 103.871,124.096 103.871 C 122.670 103.871,122.167 106.973,123.409 108.111 C 123.865 108.529,124.832 109.488,125.559 110.242 C 127.162 111.906,127.324 111.918,128.552 110.456 C 129.462 109.372,129.580 109.324,130.407 109.701 C 131.786 110.329,131.451 110.895,129.288 111.591 C 128.402 111.877,127.993 112.244,127.713 113.004 C 127.439 113.746,126.895 114.250,125.755 114.816 C 123.081 116.143,123.015 117.119,125.565 117.641 C 126.052 117.741,126.452 117.954,126.452 118.115 C 126.452 118.693,125.520 118.748,124.711 118.218 C 124.257 117.921,123.410 117.559,122.830 117.415 C 122.249 117.271,121.290 116.959,120.698 116.722 C 119.697 116.321,119.579 116.343,119.018 117.035 C 118.553 117.609,118.282 117.708,117.835 117.469 C 117.516 117.299,116.317 117.109,115.170 117.047 C 112.596 116.909,112.263 117.489,113.947 119.173 L 115.040 120.266 114.107 120.453 C 113.593 120.556,112.905 120.496,112.578 120.321 C 111.850 119.932,110.968 120.225,110.968 120.855 C 110.968 121.424,112.483 123.108,112.752 122.839 C 112.859 122.732,113.443 122.782,114.049 122.949 C 114.971 123.204,115.305 123.139,116.098 122.553 C 116.798 122.035,117.278 121.911,117.940 122.077 C 118.651 122.256,118.949 122.151,119.388 121.569 C 119.859 120.944,120.054 120.889,120.718 121.191 C 121.146 121.386,121.849 121.480,122.280 121.399 C 123.285 121.211,124.367 121.985,124.095 122.695 C 123.821 123.408,123.019 123.364,122.024 122.581 C 121.017 121.789,120.534 121.771,119.808 122.496 C 119.428 122.876,118.733 123.057,117.643 123.060 C 115.599 123.066,114.838 123.927,116.116 124.788 C 119.023 126.747,119.265 127.468,117.616 129.267 C 116.663 130.308,116.455 130.404,115.995 130.023 C 115.409 129.537,115.570 129.204,116.394 129.198 C 117.221 129.191,117.269 127.857,116.458 127.423 C 115.062 126.675,113.427 127.135,113.024 128.387 C 112.644 129.571,111.556 130.072,110.866 129.382 C 109.889 128.405,109.264 128.977,109.486 130.646 C 109.603 131.533,109.560 132.520,109.389 132.840 C 108.818 133.907,109.443 134.329,111.016 133.939 C 111.953 133.706,112.952 133.692,114.023 133.896 C 115.538 134.184,115.705 134.144,117.049 133.179 C 118.434 132.184,118.498 132.171,119.478 132.669 C 121.304 133.599,121.765 133.610,122.578 132.745 C 123.420 131.849,124.194 131.684,124.194 132.400 C 124.194 133.158,124.757 133.284,125.781 132.755 C 127.071 132.088,127.373 132.126,127.773 133.005 C 127.960 133.415,128.502 133.992,128.976 134.286 C 129.581 134.662,129.678 134.824,129.301 134.830 C 129.005 134.835,128.535 134.926,128.257 135.033 C 127.911 135.165,127.650 134.961,127.432 134.388 C 127.005 133.266,125.333 133.426,125.325 134.589 C 125.314 136.244,123.768 136.981,122.097 136.129 C 119.494 134.802,117.182 135.450,118.013 137.275 C 118.333 137.976,118.271 138.108,117.411 138.553 C 115.650 139.464,116.369 141.290,118.488 141.290 C 120.140 141.290,121.367 142.051,121.228 142.990 C 121.083 143.968,120.379 144.047,120.144 143.111 C 119.904 142.155,119.710 142.065,117.228 141.763 C 116.180 141.635,114.931 141.331,114.452 141.088 C 113.972 140.844,112.918 140.645,112.108 140.645 C 111.299 140.645,110.356 140.470,110.014 140.256 C 109.505 139.939,109.279 139.968,108.783 140.418 C 108.449 140.720,107.787 140.968,107.313 140.968 C 105.928 140.968,106.157 142.168,107.661 142.795 C 108.327 143.072,108.944 143.405,109.032 143.536 C 109.303 143.936,110.752 144.617,111.774 144.825 C 112.606 144.994,112.833 145.281,113.387 146.867 C 114.950 151.336,120.258 154.981,121.473 152.419 C 122.193 150.902,123.871 150.739,123.871 152.186 C 123.871 154.291,125.583 155.131,127.232 153.834 C 128.339 152.963,128.696 153.312,127.978 154.563 C 126.912 156.421,128.072 158.174,129.696 157.160 C 130.145 156.880,130.891 156.857,132.445 157.077 C 133.795 157.269,134.878 157.266,135.394 157.070 C 135.842 156.899,136.663 156.840,137.217 156.939 C 137.912 157.062,138.552 156.916,139.274 156.467 C 140.511 155.699,140.686 154.613,139.597 154.458 C 138.444 154.294,138.604 153.033,139.760 153.168 C 140.437 153.248,140.712 153.102,140.914 152.554 C 141.160 151.892,141.222 151.939,141.710 153.160 C 142.423 154.941,143.263 155.370,144.700 154.688 C 146.020 154.062,146.546 152.679,145.654 152.179 C 144.858 151.734,143.871 150.706,143.871 150.323 C 143.871 150.145,144.161 150.290,144.516 150.645 C 145.794 151.923,148.065 150.994,148.065 149.194 C 148.065 148.254,149.420 148.091,151.657 148.761 C 153.204 149.225,155.484 148.615,155.484 147.737 C 155.484 146.790,153.997 145.484,152.919 145.484 C 152.225 145.484,151.935 145.329,151.935 144.958 C 151.935 144.537,152.161 144.468,153.065 144.615 C 154.373 144.827,154.475 144.527,153.542 143.216 C 152.987 142.437,152.729 142.327,151.809 142.476 C 150.653 142.664,149.847 140.951,150.828 140.389 C 151.046 140.264,151.353 139.508,151.508 138.710 C 151.896 136.718,153.058 136.517,154.407 138.207 C 155.317 139.348,156.217 139.672,156.628 139.007 C 156.770 138.779,157.649 138.729,159.191 138.863 C 161.795 139.089,162.594 138.594,163.062 136.464 C 163.487 134.528,167.966 134.999,169.079 137.097 C 169.925 138.692,170.527 139.032,172.505 139.032 C 174.170 139.032,178.836 137.727,179.500 137.075 C 179.669 136.910,180.249 136.771,180.790 136.767 C 181.876 136.759,182.825 136.099,183.641 134.783 C 183.936 134.308,184.449 133.834,184.781 133.728 C 185.114 133.622,185.544 133.188,185.738 132.764 C 186.807 130.418,188.710 131.823,188.710 134.957 C 188.710 136.048,188.844 137.406,189.007 137.977 C 189.376 139.263,189.474 143.599,189.173 145.297 C 189.050 145.993,189.128 147.567,189.348 148.795 C 189.609 150.256,189.637 151.137,189.430 151.344 C 189.223 151.552,189.223 152.093,189.431 152.912 C 189.704 153.988,189.653 154.284,189.068 155.028 C 188.527 155.716,188.387 156.344,188.387 158.087 C 188.387 159.293,188.239 160.671,188.057 161.148 C 187.007 163.911,187.663 169.613,189.064 169.893 C 189.585 169.998,190.885 170.863,191.953 171.816 C 193.022 172.769,194.127 173.548,194.410 173.548 C 194.693 173.548,195.789 174.492,196.846 175.645 C 197.902 176.798,199.008 177.745,199.303 177.748 C 199.865 177.754,203.990 181.598,204.543 182.631 C 206.445 186.186,204.338 189.577,198.797 191.877 C 197.064 192.596,194.121 193.504,192.258 193.893 C 190.395 194.282,187.948 194.872,186.821 195.204 C 185.693 195.535,184.477 195.806,184.118 195.806 C 183.393 195.806,179.540 197.140,178.072 197.899 C 176.888 198.512,168.722 198.602,167.779 198.013 C 167.322 197.727,165.846 197.742,161.574 198.074 C 158.490 198.313,153.462 198.465,150.400 198.411 C 147.021 198.352,144.675 198.440,144.432 198.636 C 143.965 199.012,142.343 199.388,140.498 199.549 C 136.761 199.873,130.421 201.031,129.426 201.570 C 128.304 202.178,128.877 202.581,130.863 202.581 C 132.529 202.581,132.643 202.629,132.478 203.262 C 132.316 203.881,132.393 203.922,133.327 203.714 C 135.721 203.180,139.034 203.169,138.832 203.696 C 138.720 203.988,138.815 204.194,139.062 204.194 C 139.390 204.194,139.398 204.280,139.097 204.581 C 138.884 204.794,138.710 205.156,138.710 205.387 C 138.710 205.939,140.468 205.937,141.025 205.384 C 141.700 204.714,148.276 203.791,150.001 204.123 C 151.518 204.416,152.863 204.394,154.709 204.048 C 155.443 203.910,155.806 203.965,155.806 204.215 C 155.806 204.571,157.194 204.464,158.831 203.980 C 159.223 203.865,159.358 203.928,159.215 204.159 C 158.929 204.622,159.093 204.612,161.470 204.016 C 164.053 203.368,168.122 203.474,166.613 204.151 C 166.081 204.389,164.774 204.659,163.710 204.752 C 157.650 205.277,156.056 205.957,158.508 206.971 C 159.299 207.299,159.871 207.689,159.779 207.838 C 159.632 208.077,162.913 207.907,165.148 207.561 C 166.745 207.313,166.980 209.199,165.403 209.608 C 163.867 210.006,164.015 210.833,165.599 210.697 C 167.062 210.571,171.001 210.994,170.380 211.211 C 169.326 211.579,171.830 212.258,174.241 212.258 C 176.073 212.258,176.841 212.380,176.960 212.689 C 177.081 213.005,177.502 213.062,178.551 212.903 C 179.353 212.781,180.113 212.823,180.288 212.998 C 180.459 213.169,182.315 213.305,184.412 213.301 C 186.510 213.297,187.961 213.364,187.638 213.449 C 187.275 213.545,187.120 213.790,187.234 214.087 C 187.336 214.352,187.419 214.630,187.419 214.704 C 187.419 214.778,187.646 214.839,187.922 214.839 C 188.199 214.839,188.342 214.973,188.240 215.138 C 187.881 215.719,189.283 215.814,191.323 215.346 C 193.440 214.861,199.609 214.840,200.727 215.314 C 201.039 215.446,201.801 215.495,202.421 215.422 C 203.041 215.350,203.548 215.403,203.548 215.540 C 203.548 215.999,214.147 215.793,215.298 215.312 C 217.204 214.516,224.667 214.007,225.589 214.611 C 226.238 215.036,227.258 215.106,231.652 215.024 C 240.026 214.870,239.455 214.932,239.261 214.194 C 239.157 213.796,239.251 213.548,239.507 213.548 C 239.735 213.548,240.094 213.340,240.305 213.086 C 240.516 212.832,240.933 212.619,241.231 212.614 C 242.580 212.589,245.161 212.155,245.161 211.953 C 245.161 211.630,249.663 212.197,250.806 212.664 C 251.891 213.106,257.046 213.213,257.186 212.796 C 257.235 212.648,258.768 212.701,260.591 212.913 C 263.909 213.298,264.965 213.188,263.515 212.608 C 262.437 212.177,263.619 212.138,265.078 212.557 C 265.767 212.754,266.191 212.742,266.327 212.521 C 266.693 211.928,265.701 211.623,263.387 211.616 C 261.049 211.609,258.710 211.136,258.710 210.670 C 258.710 209.984,262.636 209.778,263.287 210.430 C 263.524 210.667,263.933 210.873,264.197 210.890 C 264.461 210.906,265.593 210.990,266.711 211.077 C 268.712 211.232,269.567 210.640,267.729 210.372 C 267.307 210.310,266.810 210.073,266.626 209.844 C 266.178 209.289,262.158 208.777,256.491 208.556 C 251.851 208.374,250.263 208.078,252.097 207.737 C 253.292 207.515,260.737 207.628,262.202 207.890 C 262.938 208.022,263.206 207.971,263.056 207.729 C 262.936 207.534,262.635 207.453,262.387 207.549 C 262.136 207.645,261.935 207.526,261.935 207.283 C 261.935 206.755,261.323 206.589,257.742 206.145 C 254.255 205.712,253.568 205.575,253.112 205.220 C 252.909 205.062,251.875 204.903,250.816 204.866 C 249.757 204.830,248.741 204.677,248.558 204.526 C 248.375 204.376,246.556 204.386,244.516 204.549 C 240.345 204.881,230.266 204.597,229.032 204.112 C 228.589 203.937,227.730 203.744,227.123 203.682 C 225.613 203.528,225.022 202.903,226.387 202.903 C 226.955 202.903,227.419 202.770,227.419 202.608 C 227.419 202.150,232.363 201.767,232.512 202.214 C 232.579 202.416,233.167 202.581,233.817 202.582 C 234.468 202.582,236.284 202.807,237.854 203.082 C 241.087 203.647,242.484 203.524,239.516 202.935 C 238.452 202.723,237.290 202.422,236.935 202.265 C 235.567 201.659,238.218 201.941,241.451 202.746 C 245.230 203.686,247.264 203.803,246.980 203.065 C 246.747 202.457,246.721 202.456,250.184 203.196 C 252.119 203.608,254.335 203.809,256.935 203.806 C 259.937 203.803,261.657 203.991,264.591 204.643 C 266.673 205.105,268.556 205.484,268.776 205.484 C 269.744 205.484,267.721 204.582,265.912 204.206 C 263.276 203.660,263.295 202.698,265.935 203.055 C 266.840 203.178,270.702 203.322,274.516 203.375 C 278.946 203.436,281.948 203.620,282.825 203.884 C 283.580 204.111,284.294 204.201,284.411 204.084 C 284.725 203.769,284.387 203.540,283.346 203.361 C 282.836 203.274,281.984 203.065,281.452 202.896 C 279.941 202.417,277.133 201.930,274.873 201.753 C 273.738 201.665,272.577 201.443,272.292 201.259 C 271.923 201.022,272.488 200.977,274.262 201.103 C 276.241 201.244,276.717 201.193,276.587 200.855 C 276.466 200.541,276.693 200.470,277.456 200.582 C 278.024 200.665,279.731 200.540,281.250 200.304 L 284.011 199.874 281.763 199.307 C 280.527 198.995,278.210 198.672,276.613 198.589 C 275.016 198.506,272.766 198.271,271.613 198.067 C 270.460 197.862,269.265 197.660,268.958 197.617 C 268.651 197.575,268.301 197.440,268.179 197.318 C 268.057 197.197,267.800 197.099,267.608 197.102 C 267.415 197.104,267.476 197.247,267.742 197.419 C 268.008 197.591,268.073 197.734,267.887 197.737 C 267.701 197.740,267.374 197.568,267.161 197.355 C 266.860 197.054,266.774 197.062,266.774 197.392 C 266.774 197.684,266.547 197.747,266.048 197.594 C 263.684 196.867,261.114 196.473,258.673 196.463 C 257.145 196.457,255.184 196.317,254.315 196.152 C 253.447 195.987,251.939 195.758,250.965 195.643 C 249.991 195.528,248.685 195.373,248.065 195.298 C 247.444 195.224,246.173 195.152,245.242 195.139 C 244.310 195.126,243.548 195.005,243.548 194.871 C 243.548 194.586,240.639 193.871,239.480 193.871 C 239.044 193.871,238.336 193.641,237.906 193.359 C 237.477 193.078,236.974 192.941,236.788 193.056 C 236.603 193.170,236.452 193.146,236.452 193.001 C 236.452 192.856,235.617 192.704,234.597 192.662 C 224.767 192.257,224.012 191.840,222.716 186.091 C 221.622 181.241,219.845 177.874,218.012 177.178 C 217.540 176.999,216.792 176.278,216.349 175.577 C 215.511 174.250,213.740 172.581,213.170 172.581 C 212.989 172.581,212.219 171.889,211.459 171.044 C 210.700 170.200,209.371 169.167,208.507 168.749 C 205.560 167.325,203.549 165.994,203.350 165.335 C 203.241 164.973,202.436 163.398,201.561 161.835 C 199.535 158.213,199.365 155.193,201.129 154.161 C 202.496 153.362,202.551 153.397,202.185 154.835 C 201.849 156.159,202.512 158.387,203.241 158.387 C 203.410 158.387,203.548 158.732,203.548 159.154 C 203.548 160.381,204.358 160.854,205.590 160.346 C 206.153 160.114,207.411 159.812,208.387 159.674 C 209.363 159.536,210.570 159.263,211.069 159.067 C 212.428 158.533,213.288 158.626,215.241 159.520 C 216.625 160.154,217.439 160.313,218.964 160.246 C 220.613 160.174,221.035 160.274,221.688 160.887 C 222.727 161.863,224.211 161.828,225.435 160.798 C 225.968 160.350,226.485 160.116,226.585 160.278 C 226.810 160.642,226.287 161.055,224.907 161.603 C 223.788 162.047,223.122 162.893,223.490 163.404 C 224.007 164.123,225.702 164.743,226.777 164.607 C 227.755 164.483,228.087 164.639,229.224 165.754 C 231.457 167.942,233.416 168.183,234.499 166.402 L 235.075 165.455 235.263 166.395 C 235.606 168.111,237.146 167.949,242.034 165.683 C 246.303 163.704,249.692 164.061,252.343 166.768 C 253.215 167.658,254.119 168.387,254.351 168.387 C 254.583 168.387,255.405 168.748,256.177 169.190 C 258.967 170.785,261.663 170.178,261.900 167.903 C 262.079 166.193,262.431 165.887,264.506 165.646 C 265.674 165.511,266.771 165.164,267.267 164.774 C 267.923 164.258,268.333 164.175,269.287 164.367 C 269.945 164.499,271.210 164.640,272.097 164.680 C 275.321 164.825,278.251 165.215,279.355 165.645 C 281.921 166.644,287.742 166.344,287.742 165.213 C 287.742 164.576,290.065 164.450,291.141 165.029 C 293.374 166.232,298.126 163.832,297.607 161.763 C 297.308 160.575,296.636 160.472,295.389 161.423 C 293.108 163.162,291.924 162.432,293.887 160.497 C 295.469 158.938,295.419 158.537,293.495 157.355 C 291.044 155.849,283.576 154.487,280.474 154.980 C 279.294 155.167,278.236 154.317,278.569 153.450 C 278.757 152.960,280.721 152.077,282.093 151.866 C 282.446 151.811,282.783 151.515,282.842 151.207 C 283.165 149.531,277.995 149.816,275.780 151.596 C 273.801 153.186,271.138 152.902,271.803 151.172 C 272.639 148.993,267.924 148.163,265.637 150.086 C 262.027 153.122,255.503 152.418,255.489 148.991 C 255.482 147.489,254.977 147.098,252.747 146.868 C 250.243 146.609,250.109 145.073,252.574 144.897 C 254.444 144.764,255.928 143.548,254.220 143.548 C 252.497 143.548,251.964 142.320,253.402 141.665 C 254.584 141.126,255.161 141.202,255.161 141.896 C 255.161 143.333,257.372 143.763,258.957 142.634 C 260.126 141.801,260.273 141.822,265.000 143.463 C 266.774 144.079,269.035 144.694,270.024 144.830 C 271.012 144.966,272.147 145.252,272.545 145.465 C 273.447 145.948,274.557 145.313,275.503 143.773 C 276.410 142.295,276.196 141.861,274.354 141.442 L 272.742 141.076 273.871 140.877 C 274.492 140.768,275.824 140.610,276.830 140.526 L 278.661 140.374 278.484 141.461 C 278.323 142.453,278.389 142.567,279.235 142.757 C 279.744 142.872,280.627 143.083,281.195 143.227 C 281.883 143.401,282.868 143.317,284.135 142.978 C 285.980 142.484,286.087 142.490,287.567 143.185 C 290.523 144.575,291.761 144.272,292.535 141.968 C 293.215 139.943,292.444 139.032,290.048 139.032 C 288.137 139.032,286.450 138.014,286.084 136.640 C 285.754 135.400,285.326 135.172,283.322 135.166 C 281.746 135.162,281.613 135.097,281.144 134.110 C 280.552 132.863,279.705 132.281,277.749 131.782 L 276.305 131.413 277.588 130.787 C 279.846 129.686,281.059 126.250,279.643 124.969 C 278.969 124.360,278.955 124.364,278.069 125.425 C 277.281 126.368,277.044 126.471,276.079 126.290 C 275.243 126.133,274.781 126.243,274.134 126.752 C 273.004 127.641,272.813 127.595,273.056 126.492 C 273.277 125.485,272.495 124.331,271.859 124.725 C 271.625 124.869,271.589 124.686,271.749 124.163 C 272.288 122.407,272.284 122.039,271.718 121.341 C 271.071 120.541,268.688 119.861,267.666 120.185 C 267.311 120.298,266.668 120.202,266.238 119.972 C 265.575 119.617,265.187 119.645,263.698 120.151 C 261.412 120.928,259.838 120.512,258.134 118.679 C 257.475 117.971,256.427 117.162,255.806 116.882 C 252.022 115.176,251.042 114.621,250.283 113.753 C 249.618 112.993,249.064 112.735,247.702 112.554 C 246.748 112.427,245.643 112.220,245.246 112.093 C 244.277 111.783,243.993 112.575,244.485 114.216 C 244.974 115.850,246.319 116.607,248.548 116.504 C 250.795 116.400,253.722 118.659,251.943 119.124 C 250.854 119.408,249.084 118.822,247.903 117.785 C 245.998 116.112,242.258 115.329,242.258 116.603 C 242.258 117.259,240.711 117.257,239.985 116.599 C 239.512 116.171,239.247 116.159,238.104 116.516 C 236.519 117.011,236.463 117.323,237.742 118.548 C 238.871 119.631,238.961 120.394,238.065 121.290 C 237.124 122.231,235.690 122.176,235.983 121.210 C 236.467 119.613,236.309 119.494,233.629 119.430 C 232.079 119.393,230.483 119.569,229.429 119.893 C 227.429 120.507,225.900 120.032,224.166 118.258 C 222.926 116.990,222.097 117.367,222.097 119.199 C 222.097 120.260,222.237 120.494,223.140 120.938 C 223.714 121.221,224.278 121.742,224.394 122.097 C 224.823 123.420,226.590 123.650,227.566 122.510 C 228.030 121.968,228.215 121.904,228.329 122.246 C 228.412 122.494,228.096 123.003,227.627 123.377 C 226.747 124.079,226.488 125.391,227.107 126.011 C 227.592 126.496,227.189 127.268,226.192 127.765 C 224.930 128.393,224.744 128.333,224.617 127.258 C 224.265 124.298,222.470 122.823,220.715 124.052 C 220.202 124.411,219.606 124.499,218.627 124.357 C 217.376 124.176,217.211 124.236,216.706 125.063 C 216.402 125.561,215.939 126.258,215.678 126.613 C 215.254 127.189,215.271 127.407,215.844 128.645 C 216.748 130.600,216.449 131.290,214.699 131.290 C 212.574 131.290,211.613 132.205,211.613 134.227 C 211.613 135.269,211.462 135.885,211.179 135.993 C 210.576 136.225,208.794 134.481,208.659 133.528 C 208.524 132.569,207.409 132.314,206.653 133.070 C 205.945 133.779,205.994 134.164,206.831 134.474 C 207.591 134.755,208.037 137.742,207.319 137.742 C 207.131 137.742,206.676 138.025,206.307 138.371 C 205.042 139.560,203.110 139.584,202.282 138.421 C 201.827 137.782,201.292 137.419,200.804 137.419 C 199.750 137.419,199.576 137.010,199.454 134.239 C 199.396 132.916,199.196 131.648,199.009 131.424 C 198.770 131.136,198.790 130.615,199.075 129.662 C 199.486 128.289,199.040 127.419,197.922 127.419 C 197.291 127.419,197.504 121.939,198.154 121.464 C 199.020 120.831,198.845 119.166,197.751 117.633 C 196.020 115.210,196.050 113.153,197.857 110.360 C 198.674 109.098,199.454 108.058,199.590 108.050 C 204.124 107.792,204.839 107.944,204.839 109.165 C 204.839 110.282,205.387 110.548,208.065 110.728 C 209.436 110.820,211.062 111.157,211.817 111.506 C 214.393 112.694,216.430 112.023,215.157 110.405 C 214.369 109.403,214.585 109.025,215.482 109.837 C 215.848 110.168,216.129 110.261,216.129 110.050 C 216.129 109.824,216.695 109.677,217.569 109.677 C 219.559 109.677,220.285 108.138,219.307 105.992 C 218.808 104.897,219.410 104.194,220.846 104.194 C 222.202 104.194,222.278 104.786,220.955 105.051 C 219.729 105.296,219.892 105.986,221.160 105.915 C 224.131 105.747,226.244 104.667,226.063 103.408 C 225.943 102.574,224.998 102.376,224.329 103.044 C 223.645 103.728,223.226 103.403,223.226 102.189 C 223.226 99.278,221.416 98.706,218.581 100.719 C 217.889 101.211,217.174 101.613,216.993 101.613 C 216.812 101.613,216.435 101.806,216.154 102.041 C 214.771 103.205,211.788 103.511,211.270 102.543 C 210.701 101.479,211.560 100.875,213.883 100.707 C 215.978 100.555,216.454 100.131,217.670 97.330 C 218.177 96.162,218.901 95.910,219.692 96.626 C 221.108 97.908,224.095 99.339,225.373 99.348 C 226.352 99.355,226.400 99.418,226.618 101.008 C 226.942 103.359,227.902 104.221,231.177 105.103 C 234.680 106.047,235.806 105.396,235.806 102.428 C 235.806 100.849,236.652 100.497,239.748 100.788 C 242.641 101.059,242.704 101.095,243.498 102.947 C 243.847 103.762,244.566 104.737,245.094 105.114 C 246.261 105.944,248.912 107.110,249.133 106.889 C 249.220 106.801,249.951 107.030,250.757 107.397 C 252.643 108.256,253.098 108.237,253.727 107.277 C 254.638 105.886,254.247 104.987,252.771 105.077 C 250.971 105.187,249.968 104.241,251.210 103.604 C 252.764 102.808,253.424 102.897,255.077 104.131 L 256.705 105.345 259.240 105.129 C 261.702 104.920,261.795 104.938,262.488 105.763 C 262.881 106.231,263.208 106.422,263.214 106.189 C 263.221 105.956,263.480 105.792,263.790 105.823 C 264.725 105.918,265.094 105.827,265.541 105.390 C 267.108 103.860,268.907 103.427,269.705 104.388 C 270.014 104.761,270.477 104.860,271.358 104.742 C 272.030 104.651,272.581 104.698,272.581 104.846 C 272.581 105.816,275.140 106.625,275.641 105.813 C 276.130 105.022,274.430 103.209,272.911 102.901 C 271.963 102.708,271.646 101.704,272.438 101.400 C 272.740 101.284,273.440 101.426,273.994 101.716 C 276.229 102.886,277.789 103.054,279.113 102.268 C 280.945 101.179,280.543 99.689,278.553 100.189 C 277.790 100.381,276.667 99.938,275.855 99.127 C 275.608 98.880,274.982 98.593,274.463 98.489 C 273.863 98.369,273.346 97.964,273.042 97.376 C 272.779 96.868,272.314 96.436,272.008 96.418 C 271.702 96.399,270.798 96.336,270.000 96.279 C 266.916 96.055,267.103 96.007,264.955 97.579 C 264.366 98.010,263.418 97.401,263.285 96.506 C 263.045 94.896,258.934 93.250,256.862 93.935 C 256.298 94.121,255.826 93.897,254.668 92.895 C 252.540 91.054,252.231 90.946,249.244 90.996 C 247.169 91.032,246.345 90.913,245.691 90.484 C 245.019 90.044,244.470 89.972,243.095 90.143 C 241.900 90.293,241.279 90.243,241.119 89.983 C 240.833 89.521,241.523 89.044,242.489 89.037 C 243.263 89.032,244.023 87.960,243.753 87.254 C 243.618 86.903,243.390 86.890,242.600 87.188 C 241.589 87.570,240.167 86.822,240.766 86.223 C 241.382 85.607,250.749 86.065,251.108 86.729 C 252.674 89.628,260.968 89.006,260.968 85.989 C 260.968 85.255,262.070 84.576,263.871 84.201 C 264.847 83.998,266.020 83.755,266.477 83.662 C 268.597 83.227,270.336 85.012,269.547 86.813 C 268.992 88.080,270.877 88.801,271.947 87.730 C 272.734 86.944,273.209 87.273,273.992 89.147 C 274.534 90.444,275.117 90.604,276.644 89.876 C 277.799 89.324,280.323 88.988,280.323 89.386 C 280.323 89.546,280.177 89.677,280.000 89.677 C 279.571 89.677,279.588 90.427,280.026 90.865 C 280.275 91.113,280.638 91.115,281.283 90.872 C 281.975 90.610,282.560 90.649,283.756 91.035 C 285.390 91.562,286.330 91.311,285.994 90.436 C 285.904 90.201,286.187 89.622,286.625 89.150 C 287.675 88.017,287.627 87.723,286.407 87.821 C 285.577 87.888,285.296 87.729,284.846 86.935 C 284.350 86.059,284.143 85.968,282.660 85.968 C 280.514 85.968,280.425 85.824,281.248 83.675 C 281.952 81.834,281.816 80.968,280.823 80.968 C 280.229 80.968,279.107 79.623,278.855 78.610 C 278.714 78.042,278.470 77.765,278.202 77.868 C 277.915 77.978,277.840 77.860,277.976 77.508 C 278.129 77.109,278.042 77.036,277.610 77.202 C 277.299 77.322,276.975 77.419,276.890 77.419 C 276.805 77.419,276.826 77.565,276.935 77.742 C 277.366 78.439,273.194 78.254,272.682 77.553 C 272.296 77.025,272.774 76.022,273.270 76.321 C 273.383 76.389,273.653 76.230,273.871 75.967 C 274.197 75.575,274.133 75.436,273.505 75.185 C 272.737 74.878,273.245 74.666,274.407 74.808 C 274.631 74.836,274.714 74.591,274.612 74.201 C 274.518 73.842,274.341 73.548,274.220 73.548 C 274.098 73.548,273.984 73.041,273.967 72.420 C 273.949 71.799,274.066 71.373,274.225 71.471 C 274.385 71.570,274.516 71.575,274.516 71.482 C 274.516 71.389,274.215 71.152,273.847 70.955 C 273.278 70.650,273.186 70.685,273.239 71.185 C 273.344 72.195,273.239 72.581,272.858 72.581 C 272.610 72.581,272.549 72.085,272.671 71.048 C 272.813 69.835,272.722 69.358,272.232 68.755 C 271.891 68.336,271.611 67.755,271.608 67.464 C 271.604 67.013,271.559 67.005,271.303 67.410 C 271.044 67.820,270.975 67.813,270.799 67.354 C 270.665 67.006,270.298 66.856,269.733 66.918 C 269.259 66.970,268.585 66.814,268.235 66.571 C 267.413 66.001,267.097 66.012,267.097 66.613 C 267.097 66.879,266.936 67.097,266.740 67.097 C 266.543 67.097,266.464 66.884,266.564 66.623 C 266.888 65.780,266.156 65.750,265.333 66.574 C 264.563 67.343,264.550 67.422,265.012 68.526 C 265.473 69.630,265.465 69.677,264.825 69.677 C 264.329 69.677,263.986 69.264,263.488 68.065 C 263.119 67.177,262.691 66.452,262.538 66.452 C 262.384 66.452,262.258 66.312,262.258 66.142 C 262.258 65.080,259.394 62.107,257.547 61.252 C 255.591 60.346,255.552 60.342,251.998 60.654 C 247.834 61.019,246.910 60.778,246.508 59.220 C 246.297 58.402,246.055 58.197,245.142 58.065 C 244.395 57.956,243.928 57.666,243.714 57.177 C 243.329 56.300,242.764 56.248,242.196 57.036 C 241.964 57.358,241.295 57.971,240.709 58.400 C 239.644 59.178,239.582 59.503,240.194 61.099 C 240.350 61.504,240.170 61.613,239.342 61.613 C 238.764 61.613,236.825 62.112,235.033 62.722 C 230.812 64.160,230.363 64.195,229.270 63.171 C 228.183 62.155,227.110 61.914,224.748 62.158 C 222.444 62.396,221.237 61.586,222.544 60.680 C 222.954 60.395,223.918 59.609,224.685 58.933 C 226.212 57.589,226.592 57.498,228.637 57.990 C 230.371 58.407,231.117 58.217,231.561 57.244 C 232.026 56.223,230.770 55.164,229.166 55.224 C 228.515 55.249,227.810 55.031,227.429 54.686 C 226.661 53.991,226.868 53.491,227.842 53.690 C 230.883 54.311,233.177 54.226,233.282 53.488 C 233.395 52.696,234.212 52.373,235.099 52.770 C 237.600 53.890,239.900 53.854,240.343 52.688 C 240.628 51.938,240.661 51.931,241.467 52.459 C 242.248 52.971,242.369 52.970,243.468 52.446 C 244.620 51.896,244.647 51.899,245.197 52.628 C 245.910 53.574,248.383 53.543,250.601 52.562 C 252.280 51.819,253.375 51.655,257.666 51.502 C 260.270 51.409,260.757 51.298,261.456 50.641 C 262.492 49.668,262.534 48.871,261.532 49.184 C 260.394 49.540,259.846 49.543,259.758 49.194 C 259.679 48.878,260.255 48.636,261.995 48.253 C 264.206 47.767,263.298 45.775,260.912 45.879 C 260.036 45.917,259.218 45.793,259.095 45.603 C 258.612 44.858,257.479 44.509,256.613 44.839 C 255.277 45.347,254.889 45.227,254.779 44.274 C 254.691 43.504,254.507 43.366,253.387 43.226 C 252.161 43.073,252.088 43.001,251.924 41.774 C 251.660 39.797,251.449 39.612,250.165 40.225 C 249.517 40.533,249.024 41.027,248.967 41.423 C 248.708 43.238,246.924 42.107,246.468 39.839 C 246.328 39.145,245.847 38.597,244.769 37.903 C 243.640 37.177,242.974 36.393,242.100 34.761 C 241.459 33.565,240.671 32.444,240.347 32.271 C 239.357 31.741,236.686 31.211,235.278 31.265 C 234.447 31.297,233.755 31.129,233.446 30.819 C 232.706 30.079,231.884 30.215,231.092 31.208 C 230.416 32.057,230.361 32.070,229.765 31.531 C 228.904 30.751,227.209 30.797,226.699 31.613 C 226.100 32.573,225.925 32.441,224.967 30.306 C 224.042 28.245,223.442 27.728,221.810 27.582 C 221.258 27.532,220.263 27.384,219.598 27.252 C 218.551 27.045,218.271 27.127,217.501 27.873 C 216.138 29.193,213.659 31.290,213.462 31.290 C 213.365 31.290,213.183 30.528,213.057 29.597 C 212.792 27.641,212.184 26.293,211.437 26.007 C 210.620 25.693,208.610 25.790,207.949 26.174 M206.119 35.862 C 206.134 36.190,204.497 38.065,204.195 38.065 C 203.809 38.065,204.189 36.857,204.712 36.423 C 204.959 36.218,205.161 35.677,205.161 35.221 C 205.161 34.433,206.080 35.048,206.119 35.862 M194.839 38.845 C 194.839 39.274,194.887 39.818,194.947 40.054 C 195.007 40.291,194.995 40.375,194.920 40.242 C 194.846 40.109,194.616 39.998,194.409 39.995 C 193.397 39.982,193.074 39.412,193.692 38.729 C 194.484 37.854,194.839 37.889,194.839 38.845 M201.935 39.315 C 201.935 39.648,202.138 40.089,202.384 40.294 C 203.091 40.880,203.296 41.998,202.630 41.632 C 201.234 40.865,200.365 38.710,201.452 38.710 C 201.718 38.710,201.935 38.982,201.935 39.315 M186.452 42.581 C 186.185 42.753,185.750 42.893,185.484 42.893 C 185.054 42.893,185.054 42.859,185.484 42.581 C 185.750 42.409,186.185 42.268,186.452 42.268 C 186.882 42.268,186.882 42.303,186.452 42.581 M198.387 42.581 C 198.766 42.825,198.682 42.894,198.003 42.898 C 197.525 42.901,197.045 42.758,196.935 42.581 C 196.681 42.169,197.750 42.169,198.387 42.581 M258.338 46.637 C 259.353 47.143,259.697 47.742,258.972 47.742 C 258.762 47.742,258.262 48.050,257.861 48.427 C 257.106 49.136,255.222 49.072,255.667 48.352 C 255.782 48.165,256.200 48.093,256.596 48.193 C 257.745 48.481,258.719 47.620,257.800 47.128 C 256.386 46.371,256.887 45.913,258.338 46.637 M252.718 49.509 C 252.376 49.768,251.498 49.984,250.765 49.990 C 249.986 49.996,249.267 50.201,249.032 50.484 C 248.811 50.750,248.394 50.956,248.106 50.942 C 247.665 50.921,247.658 50.887,248.065 50.731 C 248.331 50.628,249.019 50.188,249.594 49.753 C 250.292 49.223,250.881 49.022,251.370 49.144 C 251.773 49.245,252.314 49.197,252.574 49.036 C 253.301 48.587,253.420 48.978,252.718 49.509 M223.345 52.931 C 224.650 53.293,224.598 53.740,223.231 53.924 C 222.674 53.999,222.195 54.457,221.664 55.421 C 220.985 56.655,220.787 56.799,219.885 56.711 C 217.953 56.524,218.544 54.269,220.839 53.072 C 221.954 52.491,221.794 52.500,223.345 52.931 M206.085 54.790 C 205.579 55.599,205.975 56.981,206.771 57.189 C 207.467 57.371,207.646 58.209,207.066 58.567 C 206.872 58.687,206.293 58.475,205.779 58.095 C 205.265 57.715,204.408 57.317,203.874 57.210 C 202.594 56.954,202.645 56.722,204.274 55.356 C 205.802 54.075,206.708 53.792,206.085 54.790 M217.154 61.321 C 217.517 61.515,218.524 61.669,219.391 61.662 C 220.354 61.655,220.968 61.792,220.968 62.014 C 220.968 62.214,221.263 62.692,221.624 63.076 C 222.207 63.697,222.225 63.820,221.785 64.185 C 219.779 65.850,223.140 67.005,226.855 65.927 C 227.833 65.643,227.468 66.369,226.255 67.119 C 225.571 67.541,224.673 67.808,224.078 67.765 C 222.285 67.636,222.106 67.645,221.532 67.891 C 221.077 68.087,220.968 67.971,220.968 67.289 C 220.968 66.813,220.664 66.201,220.271 65.884 C 219.888 65.575,219.141 64.923,218.611 64.435 C 218.080 63.948,217.533 63.548,217.395 63.548 C 216.866 63.548,216.129 62.502,216.129 61.751 C 216.129 60.866,216.227 60.825,217.154 61.321 M191.475 67.313 C 191.374 67.578,191.290 68.143,191.290 68.569 C 191.290 70.041,188.588 70.041,187.624 68.569 C 186.740 67.220,187.210 66.797,189.570 66.815 C 191.288 66.828,191.627 66.917,191.475 67.313 M221.721 69.733 C 222.174 70.028,221.521 70.779,220.044 71.660 C 219.399 72.046,218.620 72.664,218.314 73.035 L 217.756 73.710 217.756 72.903 C 217.756 72.328,218.130 71.832,219.064 71.171 C 219.783 70.662,220.536 69.884,220.738 69.441 C 220.977 68.918,221.154 68.790,221.246 69.076 C 221.324 69.318,221.537 69.614,221.721 69.733 M240.882 72.302 C 241.155 72.575,241.129 72.850,240.778 73.385 C 240.087 74.440,240.506 75.161,241.809 75.161 C 243.735 75.161,243.106 76.489,240.968 76.935 C 239.445 77.253,239.032 77.646,239.032 78.773 C 239.032 79.505,238.902 79.700,238.468 79.618 C 237.181 79.374,237.785 76.456,239.124 76.447 C 239.851 76.442,240.912 75.936,240.636 75.726 C 240.552 75.663,240.085 75.361,239.597 75.056 C 238.527 74.387,238.472 73.681,239.411 72.682 C 240.209 71.833,240.371 71.791,240.882 72.302 M257.318 81.092 C 258.571 81.721,258.757 81.990,258.360 82.596 C 258.097 82.998,258.007 82.987,257.734 82.524 C 257.558 82.227,256.920 81.821,256.316 81.621 C 255.143 81.234,254.736 80.644,255.060 79.799 C 255.236 79.339,255.322 79.354,255.775 79.926 C 256.059 80.283,256.753 80.808,257.318 81.092 M220.669 83.878 C 221.395 86.268,221.212 87.184,220.031 87.072 C 216.812 86.765,215.004 87.688,214.345 89.974 C 214.064 90.948,213.861 91.136,213.054 91.172 C 212.528 91.196,211.698 91.320,211.210 91.449 C 209.931 91.786,210.119 91.407,211.608 90.648 C 213.196 89.837,214.012 88.672,213.743 87.600 C 213.524 86.726,213.574 86.678,217.016 84.490 C 218.918 83.281,219.516 82.581,218.648 82.581 C 218.252 82.581,219.332 81.642,219.749 81.623 C 219.877 81.618,220.291 82.632,220.669 83.878 M193.474 82.707 C 194.399 82.738,194.461 82.791,193.977 83.145 C 193.393 83.572,191.692 83.682,190.825 83.349 C 190.000 83.033,190.902 82.151,191.752 82.443 C 192.119 82.569,192.894 82.688,193.474 82.707 M186.452 86.471 C 186.452 86.815,186.235 87.097,185.970 87.097 C 185.547 87.097,185.501 86.717,185.782 85.545 C 185.873 85.168,186.452 85.968,186.452 86.471 M183.386 87.096 C 184.349 87.463,184.187 88.067,183.126 88.060 C 182.183 88.053,181.477 87.577,181.752 87.133 C 182.025 86.691,182.304 86.685,183.386 87.096 M276.935 87.419 C 277.257 87.774,277.360 88.065,277.166 88.065 C 276.971 88.065,276.723 87.919,276.613 87.742 C 276.503 87.565,275.987 87.419,275.465 87.419 C 274.943 87.419,274.516 87.274,274.516 87.097 C 274.516 86.515,276.337 86.758,276.935 87.419 M236.902 87.865 C 237.453 87.774,238.255 87.627,238.685 87.539 C 239.365 87.400,239.412 87.445,239.049 87.883 C 238.314 88.768,233.799 88.319,234.357 87.416 C 234.485 87.208,234.802 87.260,235.229 87.560 C 235.633 87.843,236.299 87.964,236.902 87.865 M284.592 88.711 C 285.018 89.108,285.169 89.468,284.982 89.643 C 284.800 89.812,284.375 89.551,283.927 88.996 C 283.073 87.936,283.544 87.735,284.592 88.711 M188.710 89.982 C 188.710 90.150,188.351 90.694,187.913 91.192 C 187.030 92.196,186.724 91.556,187.497 90.318 C 187.908 89.660,188.710 89.438,188.710 89.982 M195.611 92.011 C 196.293 92.464,197.715 92.267,198.031 91.675 C 198.271 91.227,198.622 91.125,199.546 91.233 C 200.799 91.379,200.093 92.215,198.689 92.247 C 198.065 92.261,196.704 93.726,196.189 94.936 C 195.964 95.465,195.403 95.981,194.838 96.178 C 194.189 96.404,193.871 96.732,193.871 97.173 C 193.871 97.995,192.996 98.685,191.935 98.702 C 191.492 98.708,190.694 99.002,190.161 99.355 C 188.803 100.254,188.710 100.195,188.710 98.439 C 188.710 96.659,189.083 96.354,191.762 95.953 C 194.876 95.486,196.065 93.038,193.061 93.277 C 191.376 93.411,191.376 93.402,193.046 91.449 L 194.317 89.962 194.786 90.868 C 195.044 91.366,195.415 91.881,195.611 92.011 M185.161 92.903 C 184.895 93.075,184.387 93.220,184.032 93.226 C 182.941 93.242,181.812 93.997,181.614 94.841 C 181.412 95.700,179.998 96.213,180.002 95.426 C 180.009 94.148,181.271 93.065,182.976 92.875 C 185.888 92.551,185.710 92.549,185.161 92.903 M271.118 99.020 C 271.484 99.424,271.606 99.862,271.457 100.230 C 271.245 100.749,271.187 100.731,270.871 100.051 C 270.546 99.351,270.394 99.312,268.772 99.514 C 267.405 99.685,267.055 99.641,267.165 99.311 C 267.488 98.342,270.316 98.134,271.118 99.020 M166.916 100.197 C 167.077 100.842,166.970 101.157,166.468 101.509 C 165.693 102.051,165.563 103.548,166.290 103.548 C 166.556 103.548,166.774 103.694,166.774 103.871 C 166.774 104.048,166.354 104.194,165.841 104.194 C 164.449 104.194,164.143 102.741,165.335 101.790 C 165.905 101.336,166.171 100.839,166.125 100.311 C 165.990 98.725,166.527 98.648,166.916 100.197 M161.925 101.694 C 161.939 102.022,161.687 101.998,160.947 101.602 C 160.603 101.418,160.323 101.048,160.323 100.780 C 160.323 100.260,161.903 101.161,161.925 101.694 M203.945 102.791 C 203.802 103.239,202.581 103.607,202.581 103.202 C 202.581 103.045,202.833 102.296,203.142 101.539 L 203.703 100.161 203.883 101.290 C 203.983 101.911,204.011 102.587,203.945 102.791 M256.274 102.170 C 256.528 102.832,255.539 102.640,255.173 101.957 C 254.989 101.614,254.839 101.249,254.839 101.148 C 254.839 100.832,256.107 101.736,256.274 102.170 M270.182 102.313 L 271.129 103.336 270.111 102.636 C 269.552 102.251,268.826 101.933,268.499 101.931 C 267.996 101.926,267.979 101.877,268.387 101.613 C 269.082 101.164,269.136 101.185,270.182 102.313 M265.548 102.000 C 265.335 102.213,265.161 102.631,265.161 102.928 C 265.161 103.226,264.944 103.650,264.677 103.871 C 264.276 104.204,264.194 104.168,264.194 103.660 C 264.194 102.909,265.063 101.613,265.567 101.613 C 265.833 101.613,265.828 101.720,265.548 102.000 M247.518 103.876 C 248.602 103.883,249.331 104.422,248.625 104.693 C 247.894 104.973,245.999 103.844,245.862 103.047 C 245.767 102.486,245.812 102.497,246.283 103.145 C 246.573 103.544,247.129 103.873,247.518 103.876 M184.194 105.034 C 184.194 105.142,183.831 105.661,183.387 106.188 C 182.592 107.133,182.581 107.136,182.581 106.380 C 182.581 105.958,182.755 105.439,182.968 105.226 C 183.371 104.823,184.194 104.694,184.194 105.034 M156.772 106.694 C 156.770 106.827,156.407 107.103,155.965 107.308 C 155.155 107.684,154.620 107.388,155.000 106.774 C 155.230 106.402,156.775 106.331,156.772 106.694 M210.536 107.237 C 210.210 107.929,210.105 107.968,209.654 107.560 C 209.031 106.995,208.324 106.966,207.806 107.484 C 207.505 107.785,207.419 107.753,207.419 107.342 C 207.419 106.835,207.582 106.789,210.373 106.506 C 210.828 106.460,210.852 106.568,210.536 107.237 M175.700 107.990 C 176.413 108.953,176.788 109.929,176.924 111.172 C 177.175 113.456,181.147 112.601,181.942 110.092 C 182.453 108.480,182.895 108.177,184.509 108.331 L 185.858 108.460 185.073 109.311 C 184.060 110.409,183.894 110.867,183.250 114.355 C 182.641 117.645,182.441 117.779,181.299 115.661 C 180.301 113.811,179.670 113.429,177.934 113.625 C 176.867 113.745,176.579 113.670,176.537 113.259 C 176.507 112.975,176.429 112.031,176.363 111.162 C 176.208 109.121,175.365 108.358,173.444 108.519 C 172.703 108.582,172.351 108.567,172.662 108.487 C 172.973 108.407,173.377 108.062,173.560 107.719 C 174.034 106.835,174.930 106.949,175.700 107.990 M147.715 109.556 C 148.017 109.828,147.527 109.933,146.697 109.773 C 146.211 109.680,145.897 109.469,145.999 109.305 C 146.160 109.044,147.339 109.217,147.715 109.556 M158.749 109.611 C 158.327 109.914,157.535 110.636,156.990 111.216 C 156.341 111.907,155.575 112.339,154.773 112.467 C 153.524 112.667,153.244 113.115,153.935 113.806 C 154.224 114.095,154.226 114.194,153.947 114.194 C 152.458 114.194,152.961 112.490,154.608 111.953 C 155.292 111.730,156.063 111.178,156.360 110.697 C 157.115 109.476,157.744 109.030,158.691 109.047 L 159.516 109.061 158.749 109.611 M145.000 110.000 C 144.890 110.177,144.583 110.323,144.317 110.323 C 144.051 110.323,143.923 110.177,144.032 110.000 C 144.142 109.823,144.449 109.677,144.715 109.677 C 144.982 109.677,145.110 109.823,145.000 110.000 M175.588 113.756 C 176.091 113.904,176.025 114.040,175.122 114.707 C 173.940 115.578,173.226 115.704,173.226 115.039 C 173.226 114.795,173.010 114.416,172.745 114.196 C 171.643 113.281,173.172 113.044,175.588 113.756 M161.428 115.619 C 164.199 117.486,166.210 117.375,166.210 115.354 C 166.210 114.314,166.669 114.641,166.827 115.793 C 166.984 116.942,165.784 117.479,163.629 117.223 C 161.753 117.001,161.275 117.768,162.469 119.088 C 162.957 119.627,162.958 119.677,162.481 119.677 C 161.828 119.677,161.290 118.710,161.290 117.537 C 161.290 116.969,160.914 116.256,160.259 115.580 C 158.934 114.213,159.363 114.227,161.428 115.619 M140.968 116.092 C 140.968 116.250,140.532 116.442,140.000 116.520 C 139.468 116.599,139.032 116.552,139.032 116.417 C 139.032 116.282,139.431 116.111,139.919 116.038 C 140.407 115.964,140.843 115.881,140.887 115.855 C 140.931 115.828,140.968 115.935,140.968 116.092 M132.861 123.391 C 132.689 124.015,132.630 124.658,132.731 124.821 C 133.064 125.360,132.339 125.487,131.907 124.965 C 131.550 124.535,131.570 124.405,132.031 124.146 C 132.333 123.977,132.581 123.580,132.581 123.264 C 132.581 122.764,132.838 122.258,133.092 122.258 C 133.137 122.258,133.033 122.768,132.861 123.391 M172.823 123.837 C 173.767 124.646,173.745 125.161,172.764 125.161 C 172.262 125.161,171.905 124.928,171.774 124.516 C 171.661 124.161,171.269 123.710,170.902 123.513 C 170.386 123.237,170.333 123.096,170.665 122.891 C 171.124 122.607,171.663 122.844,172.823 123.837 M193.510 124.435 C 193.473 125.625,193.468 125.629,193.245 124.677 C 193.030 123.761,193.090 123.226,193.406 123.226 C 193.484 123.226,193.531 123.770,193.510 124.435 M184.966 129.135 C 183.976 129.689,182.939 128.885,183.006 127.613 L 183.065 126.484 184.276 127.664 C 185.308 128.670,185.410 128.887,184.966 129.135 M244.134 127.261 C 243.896 127.783,243.319 128.204,242.509 128.447 C 241.792 128.661,240.975 129.214,240.604 129.735 C 239.822 130.833,238.930 131.355,238.268 131.101 C 237.929 130.971,238.438 130.465,239.939 129.442 C 241.126 128.633,242.532 127.631,243.065 127.215 C 244.309 126.242,244.592 126.255,244.134 127.261 M231.421 128.744 C 230.730 129.507,230.470 129.317,230.958 128.406 C 231.158 128.031,231.470 127.815,231.650 127.926 C 231.852 128.051,231.764 128.364,231.421 128.744 M250.411 128.710 C 250.862 129.065,251.535 129.355,251.906 129.355 C 253.052 129.355,252.650 129.906,251.352 130.114 C 250.649 130.226,249.798 130.658,249.361 131.123 C 248.941 131.570,248.441 131.940,248.250 131.946 C 248.059 131.952,247.323 132.238,246.613 132.581 C 245.903 132.923,244.992 133.209,244.587 133.215 L 243.852 133.226 244.569 132.255 C 245.186 131.421,245.433 131.312,246.326 131.479 C 247.197 131.643,247.451 131.542,247.902 130.853 C 248.438 130.035,248.326 128.710,247.720 128.710 C 247.555 128.710,247.419 128.565,247.419 128.387 C 247.419 127.814,249.566 128.045,250.411 128.710 M161.433 129.012 C 162.150 129.804,161.839 130.323,160.645 130.323 C 160.134 130.323,159.620 130.168,159.504 129.980 C 159.297 129.646,160.200 128.387,160.645 128.387 C 160.768 128.387,161.122 128.668,161.433 129.012 M169.429 130.565 C 169.675 130.868,169.547 130.968,168.910 130.968 C 167.977 130.968,167.868 130.636,168.454 129.576 C 168.831 128.892,168.847 128.890,168.972 129.516 C 169.043 129.871,169.249 130.343,169.429 130.565 M235.436 131.253 C 234.539 132.409,235.255 134.637,236.216 133.677 C 236.310 133.583,236.473 133.644,236.577 133.813 C 236.900 134.336,235.851 134.931,234.342 135.082 C 232.698 135.246,232.740 135.308,233.411 133.703 C 233.690 133.035,233.832 132.145,233.726 131.726 C 233.617 131.291,233.759 130.528,234.055 129.955 L 234.576 128.948 235.305 129.716 C 236.021 130.470,236.023 130.498,235.436 131.253 M221.964 131.694 C 222.983 132.709,223.731 132.804,224.802 132.054 C 225.550 131.530,226.355 131.953,225.927 132.646 C 225.099 133.987,219.261 131.873,219.814 130.432 C 220.030 129.868,220.278 130.013,221.964 131.694 M173.465 131.982 C 173.668 132.184,174.664 132.350,175.679 132.350 C 176.693 132.350,177.899 132.546,178.358 132.786 C 178.818 133.026,179.472 133.223,179.812 133.224 C 180.756 133.227,180.173 133.601,178.803 133.872 C 178.131 134.004,177.352 134.209,177.074 134.327 C 176.722 134.475,176.448 134.280,176.179 133.691 C 175.893 133.062,175.646 132.901,175.234 133.074 C 173.605 133.760,172.258 133.307,172.258 132.074 C 172.258 131.521,172.952 131.468,173.465 131.982 M193.949 132.737 C 194.034 133.183,193.979 133.548,193.826 133.548 C 193.673 133.548,193.548 133.343,193.548 133.091 C 193.548 132.839,193.451 132.380,193.332 132.070 C 193.196 131.716,193.242 131.585,193.455 131.717 C 193.641 131.832,193.864 132.291,193.949 132.737 M137.742 132.560 C 137.742 133.965,136.715 135.170,135.736 134.914 C 135.175 134.767,135.222 134.691,136.094 134.324 C 136.843 134.009,137.097 133.694,137.097 133.080 C 137.097 132.628,137.242 132.258,137.419 132.258 C 137.597 132.258,137.742 132.394,137.742 132.560 M133.964 133.516 C 134.825 134.394,134.835 134.442,134.206 134.606 C 133.457 134.802,133.302 136.076,133.949 136.723 C 134.268 137.042,134.253 137.183,133.875 137.417 C 133.525 137.633,133.247 137.468,132.815 136.786 C 132.493 136.278,131.888 135.638,131.470 135.364 L 130.710 134.867 131.726 133.741 C 132.957 132.378,132.858 132.388,133.964 133.516 M256.057 134.051 C 257.780 135.257,254.656 137.427,252.427 136.571 C 251.981 136.400,252.015 136.311,252.643 136.003 C 253.052 135.802,253.595 135.167,253.849 134.593 C 254.358 133.441,254.971 133.290,256.057 134.051 M145.597 134.667 C 145.839 135.299,145.166 135.687,144.808 135.122 C 144.403 134.483,144.452 134.194,144.965 134.194 C 145.213 134.194,145.497 134.407,145.597 134.667 M261.613 134.965 C 261.613 135.403,260.953 135.806,260.240 135.806 C 259.862 135.806,260.965 134.567,261.371 134.535 C 261.504 134.525,261.613 134.718,261.613 134.965 M128.710 139.371 C 128.710 139.893,128.102 140.003,127.282 139.630 C 126.119 139.100,126.248 138.815,127.581 138.971 C 128.202 139.044,128.710 139.224,128.710 139.371 M249.704 140.161 C 249.708 140.339,249.478 140.532,249.192 140.592 C 248.436 140.749,247.667 140.383,247.913 139.984 C 248.173 139.563,249.695 139.714,249.704 140.161 M142.603 141.048 C 142.960 141.860,143.319 142.142,144.194 142.296 C 145.140 142.463,145.183 142.503,144.459 142.538 C 143.983 142.562,143.353 142.822,143.058 143.117 C 142.559 143.617,142.456 143.614,141.547 143.077 C 140.609 142.523,140.505 142.524,138.836 143.091 C 137.482 143.551,137.015 143.595,136.711 143.292 C 136.408 142.989,136.521 142.903,137.223 142.903 C 137.719 142.903,138.493 142.613,138.944 142.258 C 139.395 141.903,139.946 141.613,140.168 141.613 C 140.389 141.613,140.809 141.250,141.099 140.806 C 141.793 139.747,142.049 139.789,142.603 141.048 M218.329 141.567 C 220.126 143.050,222.571 143.892,225.095 143.899 C 231.697 143.916,233.393 144.070,234.742 144.775 C 235.488 145.165,236.330 145.484,236.613 145.484 C 237.404 145.484,239.032 146.418,239.032 146.872 C 239.032 148.573,236.592 149.182,235.107 147.850 C 234.686 147.472,234.423 147.446,233.891 147.731 C 233.518 147.931,233.081 148.013,232.920 147.914 C 232.344 147.557,229.148 149.020,228.708 149.842 C 228.078 151.019,226.076 150.684,224.840 149.195 C 224.565 148.863,224.020 148.703,223.362 148.760 C 222.521 148.832,222.037 148.588,220.845 147.489 C 220.033 146.741,219.112 146.110,218.798 146.087 C 216.711 145.934,212.659 146.264,212.137 146.629 C 211.727 146.916,211.008 146.995,209.943 146.869 C 207.947 146.632,206.452 147.789,206.452 149.568 C 206.452 150.421,206.261 150.727,205.481 151.131 C 204.495 151.641,203.226 151.361,203.226 150.634 C 203.226 150.463,202.923 150.323,202.554 150.323 C 201.721 150.323,201.902 149.558,202.769 149.412 C 203.355 149.314,207.097 145.597,207.097 145.113 C 207.097 144.987,207.786 144.415,208.629 143.841 C 210.096 142.842,210.875 142.679,212.874 142.957 C 213.504 143.044,213.702 142.880,213.916 142.097 C 214.494 139.984,216.166 139.783,218.329 141.567 M246.181 145.631 C 246.339 147.477,243.802 148.526,242.172 147.289 C 241.335 146.654,241.730 146.089,243.799 144.959 C 245.887 143.818,246.030 143.858,246.181 145.631 M124.467 146.452 C 124.999 146.984,125.663 147.419,125.943 147.419 C 126.223 147.419,126.452 147.637,126.452 147.903 C 126.452 148.169,126.324 148.387,126.169 148.387 C 126.013 148.387,125.705 148.169,125.484 147.903 C 125.263 147.637,124.886 147.419,124.646 147.419 C 124.406 147.419,123.985 146.984,123.710 146.452 C 123.434 145.919,123.274 145.484,123.354 145.484 C 123.434 145.484,123.934 145.919,124.467 146.452 M251.738 149.758 C 251.416 151.621,251.290 151.851,250.934 151.217 C 250.715 150.826,250.772 150.368,251.125 149.685 C 251.776 148.427,251.964 148.450,251.738 149.758 M252.591 155.242 C 252.940 155.461,253.226 155.822,253.226 156.045 C 253.226 156.618,250.922 156.567,250.142 155.978 C 249.346 155.376,247.496 155.371,246.452 155.968 C 245.372 156.585,243.093 156.585,242.581 155.968 C 242.251 155.570,242.276 155.484,242.718 155.484 C 243.014 155.484,243.609 155.103,244.040 154.638 C 244.875 153.738,244.863 153.738,247.903 154.641 L 249.516 155.120 250.478 153.988 L 251.440 152.857 251.698 153.852 C 251.840 154.398,252.242 155.024,252.591 155.242 M237.523 155.159 C 237.910 155.158,238.661 154.869,239.194 154.516 C 240.346 153.753,240.645 153.715,240.645 154.333 C 240.645 154.598,240.266 154.840,239.761 154.898 C 239.177 154.965,238.837 155.219,238.760 155.645 C 238.696 156.000,238.435 156.525,238.181 156.813 C 237.927 157.100,237.551 158.234,237.347 159.334 C 236.952 161.457,236.232 162.300,234.426 162.753 C 233.646 162.949,233.571 162.886,233.589 162.048 C 233.601 161.543,233.560 160.844,233.498 160.496 C 233.418 160.037,233.697 159.714,234.516 159.321 C 236.706 158.270,237.363 156.624,235.685 156.390 C 235.026 156.298,234.994 156.188,235.251 154.904 L 235.528 153.517 236.174 154.339 C 236.530 154.791,237.137 155.160,237.523 155.159 M266.452 155.342 C 266.452 155.597,266.161 155.806,265.806 155.806 C 265.081 155.806,264.979 155.473,265.536 154.916 C 265.980 154.471,266.452 154.690,266.452 155.342 M207.419 156.129 C 207.798 156.374,207.714 156.443,207.035 156.447 C 206.558 156.449,206.077 156.306,205.968 156.129 C 205.713 155.717,206.782 155.717,207.419 156.129 M225.488 157.241 C 224.662 157.698,224.040 157.606,224.369 157.074 C 224.471 156.909,224.945 156.779,225.422 156.786 L 226.290 156.797 225.488 157.241 M287.702 160.323 C 288.424 160.323,288.632 160.458,288.569 160.887 C 288.510 161.279,288.245 161.423,287.701 161.357 C 287.271 161.305,286.386 161.486,285.734 161.758 C 285.083 162.030,284.471 162.124,284.374 161.966 C 284.277 161.809,284.414 161.597,284.679 161.496 C 284.966 161.386,285.161 160.898,285.161 160.296 C 285.161 159.291,285.169 159.286,285.956 159.802 C 286.394 160.088,287.179 160.323,287.702 160.323 M263.871 160.653 C 263.871 161.251,262.396 162.181,262.030 161.815 C 261.791 161.576,262.698 160.349,263.217 160.209 C 263.488 160.135,263.746 160.058,263.790 160.037 C 263.835 160.017,263.871 160.294,263.871 160.653 M270.621 161.116 C 271.361 161.499,271.724 161.515,272.555 161.201 C 273.390 160.886,273.628 160.898,273.856 161.267 C 274.010 161.515,274.548 161.914,275.052 162.152 L 275.968 162.587 274.839 162.365 C 274.218 162.243,272.911 162.129,271.935 162.111 C 269.939 162.074,268.321 161.412,269.069 160.938 C 269.641 160.576,269.557 160.566,270.621 161.116 M213.830 185.256 C 214.502 186.344,214.535 187.772,213.913 188.926 C 213.738 189.251,213.503 189.806,213.389 190.161 C 213.192 190.775,213.166 190.778,212.852 190.218 C 212.620 189.805,212.640 189.345,212.918 188.674 C 213.159 188.092,213.243 187.031,213.132 185.956 C 212.919 183.893,212.961 183.851,213.830 185.256 M207.918 196.016 C 207.269 196.610,206.601 197.097,206.433 197.097 C 206.265 197.097,206.708 196.572,207.418 195.930 C 208.129 195.289,208.727 194.526,208.747 194.237 C 208.776 193.834,208.822 193.855,208.941 194.322 C 209.048 194.738,208.719 195.282,207.918 196.016 M246.210 208.292 C 245.810 208.369,245.157 208.369,244.758 208.292 C 244.359 208.215,244.685 208.152,245.484 208.152 C 246.282 208.152,246.609 208.215,246.210 208.292 " stroke="none" fill="#1c1d18" fill-rule="evenodd"></path></g></svg>